<?xml version="1.0" standalone="no"?>
<!DOCTYPE svg PUBLIC "-//W3C//DTD SVG 20010904//EN"
 "http://www.w3.org/TR/2001/REC-SVG-20010904/DTD/svg10.dtd">
<svg version="1.0" xmlns="http://www.w3.org/2000/svg"
 width="622.000000pt" height="494.000000pt" viewBox="0 0 622.000000 494.000000"
 preserveAspectRatio="xMidYMid meet">
<metadata>
Created by potrace 1.16, written by Peter Selinger 2001-2019
</metadata>
<g transform="translate(0.000000,494.000000) scale(0.100000,-0.100000)"
fill="#000000" stroke="none">
<path d="M983 4448 c-35 -17 -43 -67 -43 -284 l0 -201 -110 0 c-98 0 -115 -3
-164 -27 -60 -29 -103 -73 -138 -139 l-23 -42 0 -1655 0 -1655 30 -54 c16 -29
47 -68 68 -87 82 -69 -135 -64 2611 -64 l2481 0 60 29 c67 31 107 72 139 141
l21 45 0 1645 0 1645 -22 47 c-12 26 -42 67 -67 92 -62 60 -122 79 -251 80
l-100 1 -5 228 c-5 226 -5 229 -29 248 -22 18 -52 19 -910 19 -974 0 -947 1
-1077 -62 -71 -35 -189 -136 -224 -193 l-22 -35 -44 60 c-44 60 -134 134 -207
172 -21 10 -73 28 -114 39 -73 18 -117 19 -957 18 -610 0 -888 -4 -903 -11z
m1900 -186 c128 -63 215 -181 237 -322 6 -42 10 -592 10 -1557 l0 -1493 -1015
0 -1015 0 0 1705 0 1705 858 -2 857 -3 68 -33z m2427 -1667 l0 -1705 -1010 0
-1010 0 2 1548 3 1547 32 67 c54 114 141 193 253 229 51 17 120 18 893 18
l837 1 0 -1705z m-4368 -301 l3 -1516 28 -24 28 -24 2199 0 c1590 0 2206 3
2223 11 14 6 30 22 36 36 8 17 11 447 11 1528 l0 1505 85 0 c95 0 137 -13 175
-55 l25 -27 3 -1616 c2 -1552 1 -1618 -16 -1651 -10 -19 -34 -43 -53 -53 -32
-17 -130 -18 -2477 -18 -2688 0 -2491 -5 -2532 62 -20 33 -20 46 -20 1646 0
1747 -3 1648 52 1684 34 22 52 26 145 27 l83 1 2 -1516z"/>
<path d="M1560 3667 c-52 -26 -48 -111 6 -136 18 -8 182 -11 552 -11 461 0
530 2 550 16 32 22 44 51 37 85 -13 59 -11 59 -592 59 -404 0 -534 -3 -553
-13z"/>
<path d="M1545 3125 c-33 -33 -32 -70 4 -106 l29 -29 525 0 c340 0 535 4 554
10 54 19 69 85 28 125 l-24 25 -546 0 -546 0 -24 -25z"/>
<path d="M1545 2595 c-32 -31 -32 -66 -1 -102 l24 -28 547 0 547 0 24 28 c31
36 31 71 -1 102 l-24 25 -546 0 -546 0 -24 -25z"/>
<path d="M1545 2065 c-32 -31 -32 -66 -1 -102 l24 -28 547 0 547 0 24 28 c31
36 31 71 -1 102 l-24 25 -546 0 -546 0 -24 -25z"/>
<path d="M1545 1535 c-32 -31 -32 -66 -1 -102 l24 -28 547 0 547 0 24 28 c31
36 31 71 -1 102 l-24 25 -546 0 -546 0 -24 -25z"/>
<path d="M3734 3657 c-37 -32 -36 -83 1 -115 l27 -22 545 2 545 3 19 24 c26
32 24 77 -6 106 l-24 25 -540 0 -540 0 -27 -23z"/>
<path d="M3730 3125 c-30 -32 -31 -79 -1 -108 l22 -22 550 0 551 0 19 24 c28
35 25 85 -7 110 -26 21 -36 21 -569 21 l-542 0 -23 -25z"/>
<path d="M3730 2595 c-30 -32 -31 -79 -1 -108 l22 -22 517 -3 c284 -2 532 0
550 3 72 13 99 93 46 134 -26 21 -36 21 -569 21 l-542 0 -23 -25z"/>
<path d="M3730 2065 c-29 -31 -29 -80 0 -109 20 -21 28 -21 548 -24 290 -1
537 0 550 3 61 15 82 86 37 130 l-24 25 -544 0 -544 0 -23 -25z"/>
<path d="M3738 1546 c-47 -35 -40 -107 12 -133 40 -20 1060 -19 1099 2 48 24
57 87 18 123 l-23 22 -545 0 c-430 -1 -548 -3 -561 -14z"/>
</g>
</svg>
